<?xml version="1.0" standalone="no"?>
<!DOCTYPE svg PUBLIC "-//W3C//DTD SVG 20010904//EN"
 "http://www.w3.org/TR/2001/REC-SVG-20010904/DTD/svg10.dtd">
<svg version="1.0" xmlns="http://www.w3.org/2000/svg"
 width="1708.000000pt" height="946.000000pt" viewBox="0 0 1708.000000 946.000000"
 preserveAspectRatio="xMidYMid meet">

<g transform="translate(0.000000,946.000000) scale(0.100000,-0.100000)"
fill="#000000" stroke="none">
<path d="M16340 9405 c0 -11 12 -15 44 -15 l44 0 -29 -72 c-30 -78 -34 -98
-20 -98 8 0 81 173 81 193 0 4 -27 7 -60 7 -47 0 -60 -3 -60 -15z"/>
<path d="M16510 9319 l0 -102 50 5 c27 3 56 11 65 18 19 16 20 69 0 76 -12 5
-12 9 1 29 28 42 -8 75 -82 75 l-34 0 0 -101z m95 46 c0 -16 -8 -21 -37 -23
-35 -3 -38 -1 -38 23 0 24 3 26 38 23 29 -2 37 -7 37 -23z m-1 -61 c18 -18 18
-17 10 -38 -4 -11 -19 -16 -45 -16 -36 0 -39 2 -39 28 0 16 3 32 7 35 12 13
51 7 67 -9z"/>
<path d="M714 9331 c-2 -2 -4 -143 -4 -313 l0 -308 -40 0 c-22 0 -40 -4 -40
-10 0 -5 18 -10 40 -10 l40 0 0 -770 0 -770 -34 0 c-19 0 -38 -4 -41 -10 -4
-6 10 -10 34 -10 l41 0 0 -775 0 -775 -40 0 c-22 0 -40 -4 -40 -10 0 -5 18
-10 40 -10 l40 0 0 -770 0 -770 -40 0 c-22 0 -40 -4 -40 -10 0 -5 18 -10 40
-10 l40 0 0 -770 0 -770 -40 0 c-22 0 -40 -4 -40 -10 0 -5 18 -10 40 -10 l40
0 0 -769 0 -770 -35 -3 c-46 -4 -46 -22 0 -26 l35 -3 0 -195 c0 -166 2 -194
15 -194 11 0 15 11 15 40 l0 40 1395 0 1395 0 0 -40 c0 -22 5 -40 10 -40 6 0
10 18 10 40 l0 40 1400 0 1400 0 0 -40 c0 -22 5 -40 10 -40 6 0 10 18 10 40
l0 40 1400 0 1400 0 0 -40 c0 -22 5 -40 10 -40 6 0 10 18 10 40 l0 40 1400 0
1400 0 0 -40 c0 -22 5 -40 10 -40 6 0 10 18 10 40 l0 40 1395 0 1395 0 0 -40
c0 -22 5 -40 10 -40 6 0 10 18 10 40 0 22 0 2013 0 4425 l0 4385 -7051 3
c-3878 1 -7053 0 -7055 -2z m14086 -4386 l0 -4365 -7030 0 -7030 0 0 4365 0
4365 7030 0 7030 0 0 -4365z"/>
<path d="M12406 7748 c-4 -24 -15 -143 -25 -266 -11 -123 -21 -225 -23 -228
-3 -2 -12 30 -22 72 -15 65 -22 77 -45 85 -14 6 -43 27 -63 47 -24 23 -41 33
-47 27 -11 -11 -93 -218 -112 -282 -6 -23 -15 -40 -19 -38 -3 2 -20 65 -35
140 -16 74 -34 135 -40 135 -6 0 -28 -58 -49 -129 -37 -125 -40 -130 -81 -160
-41 -29 -44 -35 -50 -89 -6 -58 -45 -262 -69 -362 l-13 -55 -26 85 c-14 47
-34 113 -43 148 -10 34 -21 62 -26 62 -19 0 -128 -185 -178 -302 l-53 -124
-90 -63 c-50 -34 -111 -73 -136 -86 -41 -21 -54 -37 -125 -158 l-79 -135 -95
-10 c-52 -6 -95 -12 -96 -14 -2 -2 -19 -37 -38 -79 l-36 -76 -76 -8 -75 -7
-139 -156 -139 -157 -174 -50 -174 -51 -253 -349 c-256 -354 -374 -494 -438
-517 -20 -7 -38 -25 -52 -52 -13 -23 -107 -126 -210 -229 l-188 -188 -79 -20
c-66 -17 -99 -34 -213 -111 l-135 -92 -115 -155 c-63 -86 -119 -162 -125 -168
-6 -9 -6 -13 1 -13 5 0 64 72 130 161 l120 160 134 91 c117 80 194 117 243
118 5 0 -33 -43 -85 -95 -52 -52 -88 -95 -80 -95 9 0 62 47 119 104 69 69 113
106 133 110 16 3 73 39 126 81 91 70 100 80 147 167 63 118 148 211 209 228
29 8 67 34 117 79 41 36 94 82 119 101 25 19 70 56 101 82 50 42 62 48 102 48
35 0 47 -4 51 -17 2 -10 14 -51 26 -91 12 -40 20 -83 18 -95 -2 -12 -79 -161
-173 -330 -93 -169 -186 -338 -206 -375 -35 -65 -48 -77 -459 -412 -233 -190
-423 -349 -422 -353 1 -4 4 -7 8 -8 3 0 194 153 425 341 256 208 429 356 443
378 12 21 40 69 61 107 323 595 354 646 355 573 0 -21 35 -46 77 -54 30 -6 34
-3 63 45 18 28 34 51 38 51 3 0 21 -14 39 -32 18 -17 36 -29 39 -25 3 3 23 77
44 164 34 147 78 271 86 248 2 -5 15 -80 29 -165 27 -161 32 -186 40 -178 3 3
19 108 35 233 22 167 34 233 46 247 10 10 20 18 24 18 3 0 17 -88 30 -195 14
-112 28 -194 34 -192 5 2 33 91 61 198 28 107 57 205 65 219 13 23 14 24 21 5
4 -11 15 -64 24 -118 16 -98 50 -190 69 -184 6 2 16 46 23 98 18 127 21 132
44 87 10 -21 28 -42 39 -48 25 -14 27 4 2 22 -10 7 -27 35 -38 61 -22 55 -36
61 -41 20 -7 -54 -33 -196 -36 -200 -10 -10 -38 84 -52 177 -19 120 -24 140
-34 140 -18 0 -64 -119 -97 -250 -20 -80 -40 -149 -45 -154 -6 -6 -9 -6 -9 0
1 35 -45 354 -51 354 -4 0 -21 -16 -37 -36 -27 -33 -31 -47 -52 -220 -13 -101
-26 -184 -30 -184 -3 0 -16 64 -28 141 -13 78 -26 147 -29 152 -13 22 -76
-142 -108 -281 -17 -78 -35 -145 -38 -148 -3 -4 -18 8 -32 25 -15 17 -30 31
-34 31 -5 0 -25 -25 -45 -55 -20 -30 -43 -55 -51 -55 -36 0 -63 23 -75 66 -15
52 -27 28 229 450 l176 292 138 83 139 84 73 155 c93 200 92 199 220 70 49
-49 95 -90 101 -90 6 0 47 132 91 294 96 349 74 316 291 439 l74 42 57 122
c52 109 139 258 147 251 1 -2 23 -122 49 -268 25 -145 48 -266 51 -269 11 -11
17 27 49 307 44 379 42 371 85 396 l33 20 34 -39 c18 -21 36 -36 39 -32 5 5
-54 97 -63 97 -2 0 -22 -9 -45 -21 l-41 -21 6 24 c4 12 7 32 7 44 0 13 16 32
43 51 40 29 45 38 76 139 38 123 31 128 71 -51 28 -128 30 -135 38 -135 4 0
29 64 55 143 27 78 58 162 68 186 l19 43 38 -33 c21 -19 46 -38 56 -44 12 -7
26 -47 44 -118 15 -60 32 -109 37 -110 8 -2 50 393 55 523 1 29 3 32 10 15 5
-11 14 -39 20 -63 10 -38 14 -42 38 -40 l27 3 22 -140 c12 -77 22 -142 22
-144 1 -3 6 0 11 5 6 6 21 83 34 171 14 89 31 174 39 189 14 26 15 23 32 -90
10 -64 22 -115 27 -114 6 2 20 35 32 73 12 39 30 82 40 97 10 15 13 29 7 32
-11 7 -44 -44 -62 -99 l-13 -40 -18 109 c-9 60 -20 111 -23 114 -18 18 -59
-105 -75 -223 -7 -49 -16 -96 -19 -103 -4 -7 -13 24 -20 70 -19 130 -19 130
-50 123 -25 -5 -28 -2 -39 42 -7 26 -17 65 -23 86 -13 49 -26 47 -33 -5z
m-837 -925 c-50 -76 -81 -115 -64 -83 22 42 101 160 108 160 4 0 -16 -35 -44
-77z m146 -228 c6 0 15 23 21 50 7 28 13 43 13 35 1 -13 -26 -241 -30 -260 -2
-9 -48 245 -48 265 0 11 8 -5 17 -35 10 -30 22 -55 27 -55z m-685 -590 c-38
-137 -72 -256 -75 -264 -4 -11 -30 9 -93 72 -66 66 -94 87 -114 87 l-27 0 28
62 c32 70 35 71 154 83 l68 7 61 104 c33 58 62 103 64 102 1 -2 -29 -115 -66
-253z m-369 -177 c-11 -24 -41 -89 -68 -146 l-49 -103 -137 -82 -137 -82 -173
-285 c-95 -157 -186 -309 -203 -337 -16 -29 -31 -53 -34 -53 -3 0 -17 42 -31
93 l-25 92 -53 3 c-46 3 -56 -1 -89 -28 -20 -17 -73 -58 -117 -92 -44 -34
-110 -90 -147 -125 -90 -86 -125 -85 -39 1 34 35 176 220 315 412 l252 349 89
27 c50 15 129 39 177 53 l87 26 136 154 c143 162 138 159 232 163 l32 2 -18
-42z m-1596 -1475 c-32 -59 -50 -77 -135 -140 -53 -40 -101 -73 -106 -73 -5 0
54 63 131 140 77 77 141 140 143 140 2 0 -13 -30 -33 -67z"/>
<path d="M8038 3491 l-43 -59 -248 -102 -249 -101 -421 -396 c-386 -361 -449
-423 -420 -412 6 2 200 182 431 399 l422 395 247 101 c243 99 248 102 286 150
48 62 61 84 48 84 -5 0 -29 -27 -53 -59z"/>
<path d="M15908 9332 l-228 -2 0 -4385 0 -4385 230 0 230 0 0 1630 0 1630 40
0 c22 0 40 5 40 10 0 6 -18 10 -40 10 l-40 0 0 480 0 480 40 0 c22 0 40 5 40
10 0 6 -18 10 -40 10 l-40 0 0 585 0 585 40 0 c29 0 40 4 40 15 0 11 -11 15
-40 15 l-40 0 0 520 0 520 40 0 c22 0 40 5 40 10 0 6 -18 10 -40 10 l-40 0 0
625 0 625 40 0 c22 0 40 5 40 10 0 6 -18 10 -40 10 l-40 0 0 480 0 480 40 0
c22 0 40 5 40 10 0 6 -13 10 -29 10 -16 0 -35 1 -43 3 -7 1 -115 1 -240 -1z
m212 -5867 l0 -2885 -204 0 c-113 0 -207 4 -210 9 -3 5 -3 1303 1 2885 l6
2876 204 0 203 0 0 -2885z"/>
<path d="M121 8824 c-33 -23 -51 -74 -51 -141 0 -122 91 -182 168 -111 30 29
31 109 2 138 -26 26 -66 35 -96 21 -33 -15 -34 -14 -34 9 0 12 12 33 26 47 22
22 31 25 70 19 34 -4 44 -2 44 8 0 30 -91 36 -129 10z m75 -122 c39 -26 38
-92 -2 -118 -42 -28 -91 20 -79 77 9 40 51 62 81 41z"/>
<path d="M364 8825 c-34 -23 -47 -67 -42 -150 3 -65 7 -78 30 -102 20 -19 38
-27 63 -27 25 0 43 8 63 27 23 24 27 37 30 102 6 113 -24 165 -93 165 -17 0
-40 -7 -51 -15z m93 -41 c21 -32 23 -142 4 -178 -19 -35 -49 -39 -77 -11 -24
24 -29 50 -24 135 4 75 61 108 97 54z"/>
<path d="M16347 8423 c-15 -14 -5 -20 36 -19 38 1 42 -1 42 -24 0 -20 -6 -26
-27 -28 -32 -4 -38 -22 -9 -22 31 0 53 -28 41 -51 -8 -14 -21 -19 -50 -19 -45
0 -53 -14 -15 -24 71 -18 124 46 78 96 -9 10 -11 18 -5 18 20 0 25 41 6 61
-17 19 -83 27 -97 12z"/>
<path d="M16510 8335 l0 -95 53 0 c29 0 58 5 65 12 15 15 16 60 1 75 -8 8 -8
17 0 31 22 42 -11 72 -78 72 l-41 0 0 -95z m88 66 c8 -5 12 -17 10 -27 -2 -14
-13 -20 -41 -22 -33 -3 -37 -1 -37 21 0 13 3 27 7 30 9 10 45 8 61 -2z m15
-93 c16 -24 -9 -48 -49 -48 -31 0 -34 3 -34 28 0 16 3 32 7 36 13 12 66 2 76
-16z"/>
<path d="M80 7201 l0 -69 44 5 c52 6 81 -8 90 -43 14 -56 -44 -95 -111 -75
-29 8 -33 7 -33 -9 0 -42 120 -38 160 5 28 30 31 96 5 125 -21 23 -80 44 -100
36 -11 -4 -15 3 -15 29 l0 35 55 0 c42 0 55 3 55 15 0 12 -15 15 -75 15 l-75
0 0 -69z"/>
<path d="M330 7201 l0 -68 49 5 c40 3 52 1 70 -17 56 -56 -11 -127 -96 -102
-29 8 -33 7 -33 -9 0 -31 76 -40 134 -16 24 10 37 24 45 49 23 70 -19 132 -90
132 -37 0 -39 1 -39 32 0 32 0 32 57 35 34 2 58 8 61 16 3 9 -17 12 -77 12
l-81 0 0 -69z"/>
<path d="M16347 7153 c-15 -14 -6 -23 18 -17 l25 6 0 -76 c0 -69 -2 -76 -20
-76 -11 0 -20 -4 -20 -10 0 -5 25 -10 55 -10 30 0 55 5 55 10 0 6 -9 10 -20
10 -18 0 -20 7 -20 85 l0 85 -33 0 c-19 0 -37 -3 -40 -7z"/>
<path d="M16510 7065 l0 -95 39 0 c67 0 91 14 91 54 0 21 -6 38 -16 44 -14 8
-14 10 0 21 39 33 4 71 -65 71 l-49 0 0 -95z m97 59 c8 -21 -24 -46 -52 -42
-13 2 -21 12 -23 31 -3 25 -1 27 33 27 24 0 38 -5 42 -16z m7 -79 c9 -23 -4
-45 -30 -51 -37 -9 -54 2 -54 36 0 28 2 30 39 30 25 0 41 -5 45 -15z"/>
<path d="M16370 6041 c-52 -77 -52 -91 -1 -91 33 0 40 -4 43 -22 5 -32 28 -35
28 -4 0 16 6 26 15 26 8 0 15 5 15 10 0 6 -7 10 -15 10 -12 0 -15 14 -15 65 0
84 -16 85 -70 6z m37 -68 c-3 -2 -17 -3 -31 -1 l-25 3 27 42 27 43 3 -41 c2
-23 1 -43 -1 -46z"/>
<path d="M16533 6093 c-31 -6 -29 -23 2 -23 24 0 25 -2 25 -70 0 -63 -2 -70
-20 -70 -11 0 -20 -7 -20 -16 0 -12 10 -14 53 -12 51 3 68 20 27 26 -18 3 -20
11 -20 88 0 88 1 86 -47 77z"/>
<path d="M16690 6080 c-23 -23 -28 -102 -8 -145 25 -56 101 -36 114 30 18 100
-48 173 -106 115z m69 -14 c19 -22 10 -126 -11 -140 -29 -18 -53 16 -53 73 0
67 34 103 64 67z"/>
<path d="M16845 6087 c-10 -23 -1 -177 10 -180 6 -1 12 30 15 73 l5 75 20 -55
c12 -33 26 -55 35 -55 9 0 23 22 35 55 l20 55 5 -75 c3 -43 9 -74 15 -73 6 2
11 45 13 98 3 89 1 95 -17 95 -15 0 -25 -14 -42 -60 -12 -33 -25 -60 -28 -60
-4 0 -16 26 -28 58 -20 56 -47 79 -58 49z"/>
<path d="M385 5711 c-44 -19 -60 -49 -63 -127 -6 -112 24 -164 93 -164 69 0
99 52 93 165 -3 64 -7 79 -28 99 -29 28 -66 39 -95 27z m76 -57 c19 -36 17
-146 -4 -178 -36 -54 -93 -21 -97 54 -5 85 0 111 24 135 28 28 58 24 77 -11z"/>
<path d="M80 5642 l0 -68 51 1 c45 0 54 -4 72 -27 41 -55 -18 -112 -94 -91
-34 9 -39 8 -39 -7 0 -22 20 -30 71 -30 87 0 135 61 105 133 -17 42 -41 57
-90 57 -34 0 -36 2 -36 35 l0 35 55 0 c42 0 55 3 55 15 0 12 -15 15 -75 15
l-75 0 0 -68z"/>
<path d="M16550 4897 c-45 -23 -62 -84 -39 -144 12 -33 26 -43 61 -43 39 0 60
26 56 68 -4 46 -45 75 -78 54 -23 -14 -26 -3 -10 29 8 13 21 19 45 19 19 0 35
5 35 10 0 6 -4 10 -9 10 -5 0 -15 2 -23 5 -7 3 -24 -1 -38 -8z m44 -93 c19
-18 20 -28 6 -55 -19 -34 -70 -18 -70 22 0 18 25 49 40 49 5 0 16 -7 24 -16z"/>
<path d="M16695 4885 c-20 -19 -25 -34 -25 -77 0 -66 20 -98 60 -98 36 0 57
21 66 65 9 50 -3 102 -29 120 -30 21 -44 19 -72 -10z m59 -11 c21 -20 22 -117
1 -134 -38 -32 -71 19 -59 92 4 30 22 54 41 58 1 0 9 -7 17 -16z"/>
<path d="M16347 4893 c-15 -15 -5 -25 18 -19 l25 6 0 -75 c0 -68 -2 -75 -20
-75 -11 0 -20 -4 -20 -10 0 -5 25 -10 55 -10 30 0 55 5 55 10 0 6 -9 10 -20
10 -18 0 -20 7 -20 85 l0 85 -33 0 c-19 0 -37 -3 -40 -7z"/>
<path d="M16840 4805 c0 -78 3 -95 15 -95 12 0 15 16 16 78 l1 77 21 -57 c14
-37 28 -58 37 -58 10 0 24 21 37 58 l22 57 0 -77 c1 -62 4 -78 16 -78 12 0 15
17 15 96 0 92 -1 95 -22 92 -16 -2 -27 -18 -44 -63 -24 -67 -20 -69 -58 28
-11 26 -21 37 -35 37 -20 0 -21 -6 -21 -95z"/>
<path d="M120 4060 c-33 -49 -60 -98 -60 -110 0 -18 6 -20 65 -20 l65 0 0 -35
c0 -28 4 -35 20 -35 16 0 20 7 20 35 0 28 4 35 20 35 11 0 20 7 20 15 0 8 -9
15 -20 15 -19 0 -20 7 -20 95 0 94 0 95 -25 95 -20 0 -36 -17 -85 -90z m67
-97 c-3 -2 -25 -3 -50 -1 l-45 3 47 72 46 73 3 -71 c2 -39 1 -73 -1 -76z"/>
<path d="M330 4080 l0 -71 44 6 c39 6 48 4 70 -18 32 -32 33 -60 5 -88 -18
-18 -29 -21 -76 -16 -47 5 -54 3 -51 -11 5 -27 116 -29 150 -3 72 57 24 171
-72 171 -28 0 -30 3 -30 35 l0 35 61 0 c44 0 60 3 57 13 -3 8 -31 13 -81 15
l-77 3 0 -71z"/>
<path d="M16530 3912 c-44 -36 -36 -163 12 -178 32 -10 68 5 78 32 19 49 12
113 -15 139 -29 30 -45 31 -75 7z m61 -18 c20 -24 18 -110 -4 -131 -13 -14
-21 -15 -35 -7 -24 16 -29 115 -7 138 20 20 29 20 46 0z"/>
<path d="M16340 3910 c0 -5 20 -10 44 -10 l44 0 -29 -76 c-32 -82 -35 -98 -18
-92 8 3 79 167 79 184 0 2 -27 4 -60 4 -33 0 -60 -4 -60 -10z"/>
<path d="M16680 3825 c0 -57 4 -95 10 -95 6 0 10 35 11 83 l0 82 24 -60 c31
-81 46 -81 76 -3 l24 63 3 -82 c4 -115 22 -105 22 12 0 87 -2 95 -19 95 -15 0
-25 -15 -42 -60 -12 -34 -25 -57 -29 -53 -4 4 -15 32 -26 61 -13 37 -23 52
-36 52 -16 0 -18 -10 -18 -95z"/>
<path d="M121 2498 c-33 -51 -61 -101 -61 -110 0 -14 11 -18 63 -20 62 -3 62
-3 65 -35 2 -25 8 -33 23 -33 15 0 19 7 19 35 0 28 4 35 20 35 11 0 20 7 20
15 0 8 -9 15 -20 15 -18 0 -20 8 -22 93 -3 86 -4 92 -25 95 -18 3 -33 -13 -82
-90z m66 -95 c-3 -2 -25 -3 -49 -1 l-44 3 45 70 46 70 3 -69 c2 -37 1 -70 -1
-73z"/>
<path d="M367 2579 c-30 -18 -47 -65 -47 -134 0 -98 35 -155 95 -155 60 0 95
57 95 155 0 71 -17 117 -49 135 -25 13 -71 12 -94 -1z m89 -45 c18 -27 24
-117 11 -166 -13 -50 -74 -61 -97 -17 -17 31 -14 157 5 185 21 32 59 32 81 -2z"/>
<path d="M103 1023 c-13 -3 -23 -12 -23 -21 0 -14 8 -16 50 -14 59 5 82 -10
78 -47 -3 -22 -10 -27 -45 -35 -52 -11 -59 -36 -10 -36 46 0 74 -31 61 -67
-12 -35 -60 -50 -109 -35 -31 9 -35 8 -35 -8 0 -43 130 -38 168 5 29 34 28 70
-4 102 -25 25 -25 25 -5 40 22 15 27 53 11 83 -16 31 -75 45 -137 33z"/>
<path d="M330 951 l0 -68 48 4 c54 5 78 -8 87 -49 5 -21 1 -33 -19 -52 -27
-27 -58 -32 -100 -16 -22 8 -26 7 -26 -9 0 -23 19 -31 71 -31 54 0 95 23 108
60 24 69 -18 130 -90 130 -38 0 -39 1 -39 35 l0 35 60 0 c47 0 60 3 60 15 0
12 -16 15 -80 15 l-80 0 0 -69z"/>
<path d="M1017 433 c-16 -16 -4 -23 28 -17 37 7 65 -7 65 -33 0 -8 -22 -38
-50 -67 -27 -29 -50 -58 -50 -64 0 -8 23 -12 65 -12 37 0 65 4 65 10 0 6 -20
10 -45 10 -25 0 -45 4 -45 8 0 4 16 24 36 43 48 46 59 75 39 105 -12 19 -24
24 -59 24 -23 0 -46 -3 -49 -7z"/>
<path d="M3840 424 c0 -10 7 -14 23 -12 21 3 22 -1 25 -69 3 -72 3 -73 -23
-73 -16 0 -25 -6 -25 -15 0 -12 13 -15 61 -15 44 0 60 3 57 13 -3 6 -14 13
-26 15 -21 3 -22 9 -22 88 l0 84 -35 0 c-25 0 -35 -4 -35 -16z"/>
<path d="M6564 432 c-35 -23 -45 -111 -19 -162 13 -24 22 -30 50 -30 18 0 40
7 49 15 33 33 33 130 -1 167 -16 18 -59 24 -79 10z m66 -31 c5 -11 10 -38 10
-61 0 -50 -14 -80 -38 -80 -31 0 -42 22 -42 80 0 31 5 61 12 68 18 18 46 14
58 -7z"/>
<path d="M9360 424 c0 -12 6 -15 25 -10 25 6 25 6 25 -68 0 -69 -2 -75 -22
-78 -12 -2 -23 -9 -26 -15 -3 -10 13 -13 58 -13 45 0 61 3 58 13 -3 6 -14 13
-26 15 -21 3 -22 9 -22 88 l0 84 -35 0 c-25 0 -35 -4 -35 -16z"/>
<path d="M12177 433 c-16 -15 -5 -21 32 -16 31 4 41 2 49 -13 13 -26 1 -52
-47 -99 -57 -54 -54 -65 19 -65 33 0 60 4 60 10 0 6 -21 10 -46 10 l-47 0 47
50 c72 77 61 130 -27 130 -18 0 -37 -3 -40 -7z"/>
<path d="M14990 427 c0 -9 11 -12 37 -9 27 3 40 0 50 -13 16 -23 0 -45 -33
-45 -35 0 -29 -18 8 -28 63 -16 43 -75 -24 -71 -21 2 -39 -1 -40 -6 -2 -6 20
-11 49 -13 47 -3 54 0 69 24 17 25 17 28 1 57 -13 21 -15 33 -7 41 14 14 13
49 -2 64 -17 17 -108 16 -108 -1z"/>
<path d="M335 371 c-18 -4 -31 -14 -33 -25 -4 -16 0 -18 27 -13 l31 7 0 -110
0 -110 -30 0 c-20 0 -30 -5 -30 -15 0 -12 16 -15 85 -15 69 0 85 3 85 15 0 10
-11 15 -35 15 l-35 0 0 130 c0 143 4 136 -65 121z"/>
<path d="M585 369 c-33 -16 -47 -48 -53 -115 -8 -109 27 -169 100 -169 47 0
72 24 89 88 35 129 -43 241 -136 196z m79 -38 c41 -46 27 -192 -21 -214 -23
-10 -28 -8 -49 16 -39 45 -32 181 10 209 19 13 42 9 60 -11z"/>
<path d="M3140 371 c-14 -4 -26 -15 -28 -25 -3 -15 1 -16 32 -10 l36 6 0 -111
0 -111 -30 0 c-20 0 -30 -5 -30 -15 0 -12 16 -15 80 -15 64 0 80 3 80 15 0 10
-10 15 -30 15 l-30 0 0 130 0 130 -27 -1 c-16 -1 -39 -4 -53 -8z"/>
<path d="M3388 363 c-30 -34 -38 -62 -38 -128 0 -102 30 -145 103 -145 22 0
41 8 56 24 44 46 44 195 0 242 -28 30 -98 34 -121 7z m99 -40 c12 -18 18 -47
18 -88 0 -72 -22 -115 -60 -115 -38 0 -55 35 -55 115 0 48 5 78 16 93 21 31
59 28 81 -5z"/>
<path d="M6115 375 c-5 -2 -22 -6 -37 -9 -16 -4 -28 -13 -28 -22 0 -13 7 -15
35 -10 l35 7 0 -111 0 -110 -35 0 c-24 0 -35 -5 -35 -15 0 -12 16 -15 85 -15
69 0 85 3 85 15 0 10 -10 15 -30 15 l-29 0 -3 127 c-3 130 -7 141 -43 128z"/>
<path d="M6320 352 c-35 -35 -47 -110 -30 -181 13 -56 33 -78 76 -86 65 -12
114 49 114 143 0 128 -88 196 -160 124z m94 -18 c23 -22 29 -56 24 -125 -3
-44 -10 -65 -26 -81 -49 -50 -101 30 -88 136 8 75 52 109 90 70z"/>
<path d="M8893 373 c-14 -3 -23 -12 -23 -23 0 -16 5 -18 35 -13 l36 6 -3 -109
-3 -109 -32 -3 c-21 -2 -33 -9 -33 -18 0 -11 18 -14 85 -14 67 0 85 3 85 14 0
9 -12 16 -32 18 l-33 3 -3 128 -3 127 -27 -1 c-15 -1 -37 -4 -49 -6z"/>
<path d="M9143 365 c-25 -18 -43 -71 -43 -130 0 -98 33 -145 102 -145 46 0 72
23 87 77 20 71 7 157 -30 194 -23 23 -85 25 -116 4z m103 -50 c18 -44 18 -116
-1 -161 -13 -31 -18 -35 -47 -32 -46 4 -60 35 -56 124 4 81 17 104 60 104 24
0 32 -6 44 -35z"/>
<path d="M11745 375 c-5 -2 -22 -6 -37 -9 -17 -4 -28 -13 -28 -22 0 -13 7 -15
35 -11 l35 6 0 -110 0 -109 -30 0 c-20 0 -30 -5 -30 -15 0 -12 16 -15 85 -15
69 0 85 3 85 15 0 10 -11 15 -35 15 l-35 0 0 130 c0 136 -1 140 -45 125z"/>
<path d="M11955 356 c-45 -45 -49 -195 -6 -240 31 -33 72 -41 109 -22 71 37
81 214 15 266 -36 28 -88 26 -118 -4z m100 -29 c39 -60 26 -188 -22 -210 -23
-10 -28 -8 -50 18 -23 26 -25 35 -21 108 3 64 7 81 23 93 28 20 52 17 70 -9z"/>
<path d="M14565 375 c-5 -2 -22 -6 -37 -9 -17 -4 -28 -13 -28 -22 0 -13 7 -15
35 -11 l35 6 0 -110 0 -109 -30 0 c-20 0 -30 -5 -30 -15 0 -12 16 -15 80 -15
64 0 80 3 80 15 0 10 -10 15 -30 15 l-29 0 -3 127 c-3 130 -7 141 -43 128z"/>
<path d="M14787 369 c-31 -18 -47 -65 -47 -138 0 -82 13 -117 51 -137 41 -21
65 -17 101 15 27 24 32 36 36 89 6 81 -4 129 -33 158 -26 26 -76 32 -108 13z
m87 -41 c11 -16 16 -46 16 -100 0 -65 -3 -81 -20 -98 -23 -23 -39 -25 -64 -7
-37 27 -43 152 -10 205 19 29 58 29 78 0z"/>
<path d="M780 325 c0 -12 17 -15 90 -15 73 0 90 3 90 15 0 12 -17 15 -90 15
-73 0 -90 -3 -90 -15z"/>
<path d="M3600 325 c0 -12 17 -15 90 -15 73 0 90 3 90 15 0 12 -17 15 -90 15
-73 0 -90 -3 -90 -15z"/>
</g>
</svg>
